# xmcd
#
# Track frame offsets:
#	150
#	19367
#	43918
#
# Disc length: 791 seconds
#
# Revision: 0
# Processed by: cddbd v1.5.2PL0 Copyright (c) Steve Scherf et al.
# Submitted via: audiograbber 1.83.01
#
DISCID=23031503
DTITLE=Telectro - Petrified Air
DYEAR=2004
DGENRE=Alt. Rock
TTITLE0=Petrified Air
TTITLE1=Departure In Two Parts
TTITLE2=Steve Vs. The Universe
EXTD=
EXTT0=
EXTT1=
EXTT2=
PLAYORDER=
